<svg width="749" height="205" viewBox="0 0 749 205" fill="none" xmlns="http://www.w3.org/2000/svg">
<path d="M707.613 161.434C700.379 161.434 693.838 159.749 687.991 156.379C682.243 153.01 677.734 148.352 674.464 142.406C671.194 136.361 669.559 129.623 669.559 122.19C669.559 115.055 671.095 108.514 674.167 102.568C677.338 96.5234 681.748 91.7666 687.396 88.2981C693.045 84.7306 699.487 82.9468 706.721 82.9468C714.153 82.9468 720.595 84.5819 726.045 87.8522C731.595 91.1225 735.807 95.6811 738.68 101.528C741.554 107.276 742.991 113.915 742.991 121.447C742.991 122.339 742.942 123.231 742.843 124.123C742.744 125.014 742.694 125.51 742.694 125.609H685.91C686.405 132.348 688.833 137.551 693.194 141.217C697.554 144.884 702.509 146.717 708.059 146.717C716.581 146.717 723.122 142.753 727.68 134.825L741.653 141.515C738.383 147.56 733.825 152.415 727.978 156.082C722.23 159.65 715.442 161.434 707.613 161.434ZM726.343 113.123C726.144 110.744 725.352 108.316 723.964 105.839C722.577 103.361 720.397 101.28 717.424 99.5955C714.55 97.8117 710.933 96.9198 706.572 96.9198C701.716 96.9198 697.505 98.4063 693.937 101.379C690.469 104.352 688.09 108.267 686.802 113.123H726.343Z" fill="white"/>
<path d="M633.671 161.434C625.248 161.434 618.261 159.501 612.712 155.636C607.261 151.672 603.396 146.717 601.117 140.771L615.685 134.528C617.37 138.591 619.797 141.663 622.969 143.744C626.239 145.825 629.806 146.866 633.671 146.866C637.734 146.866 641.054 146.123 643.631 144.636C646.207 143.051 647.496 141.019 647.496 138.542C647.496 136.163 646.455 134.231 644.374 132.744C642.293 131.159 638.874 129.771 634.117 128.582L624.009 126.204C618.46 124.915 613.653 122.537 609.59 119.069C605.626 115.501 603.644 110.893 603.644 105.244C603.644 98.4063 606.469 93.0054 612.117 89.0414C617.766 84.9783 624.703 82.9468 632.928 82.9468C639.766 82.9468 645.811 84.3837 651.063 87.2576C656.415 90.1315 660.28 94.2937 662.658 99.7441L648.239 105.839C646.852 102.767 644.721 100.487 641.847 99.0009C638.973 97.5144 635.852 96.7711 632.482 96.7711C629.212 96.7711 626.338 97.5144 623.861 99.0009C621.383 100.388 620.144 102.271 620.144 104.65C620.144 106.731 620.987 108.415 622.671 109.704C624.455 110.992 627.23 112.082 630.996 112.974L641.996 115.65C649.428 117.532 654.978 120.406 658.644 124.271C662.311 128.037 664.144 132.596 664.144 137.947C664.144 142.307 662.807 146.271 660.131 149.839C657.554 153.406 653.937 156.231 649.279 158.312C644.721 160.393 639.518 161.434 633.671 161.434Z" fill="white"/>
<path d="M555.444 161.434C550.192 161.434 545.435 160.393 541.174 158.312C537.011 156.132 533.692 153.159 531.214 149.393C528.836 145.528 527.646 141.168 527.646 136.312C527.646 128.582 530.52 122.487 536.268 118.028C542.115 113.568 549.498 111.339 558.417 111.339C566.246 111.339 572.935 112.677 578.485 115.352V112.231C578.485 107.771 576.701 104.105 573.133 101.231C569.665 98.2576 565.453 96.7711 560.498 96.7711C552.966 96.7711 546.921 99.8432 542.363 105.987L529.876 97.3657C533.345 92.7081 537.656 89.1405 542.809 86.663C548.061 84.1855 553.957 82.9468 560.498 82.9468C571.3 82.9468 579.624 85.672 585.471 91.1225C591.417 96.4738 594.39 104.055 594.39 113.866V159.055H578.485V149.988H577.593C575.214 153.357 572.192 156.132 568.525 158.312C564.858 160.393 560.498 161.434 555.444 161.434ZM558.12 147.906C561.786 147.906 565.156 147.015 568.228 145.231C571.399 143.348 573.876 140.92 575.66 137.947C577.543 134.875 578.485 131.605 578.485 128.136C573.232 125.262 567.633 123.825 561.687 123.825C556.237 123.825 551.975 125.014 548.903 127.393C545.831 129.771 544.295 132.794 544.295 136.46C544.295 139.83 545.633 142.605 548.309 144.785C551.083 146.866 554.354 147.906 558.12 147.906Z" fill="white"/>
<path d="M486.84 161.433C481.489 161.433 476.683 160.294 472.421 158.014C468.259 155.735 465.138 152.861 463.056 149.393H462.165V159.055H446.705V52.6221H463.056V84.5816L462.165 94.8384H463.056C465.138 91.469 468.259 88.6447 472.421 86.3654C476.683 84.0861 481.489 82.9465 486.84 82.9465C493.183 82.9465 499.03 84.6312 504.381 88.0006C509.831 91.3699 514.142 96.0772 517.313 102.122C520.584 108.068 522.219 114.757 522.219 122.19C522.219 129.622 520.584 136.312 517.313 142.257C514.142 148.203 509.831 152.911 504.381 156.379C499.03 159.749 493.183 161.433 486.84 161.433ZM484.016 146.42C487.881 146.42 491.448 145.429 494.719 143.447C498.088 141.465 500.764 138.64 502.746 134.974C504.827 131.208 505.867 126.947 505.867 122.19C505.867 117.433 504.827 113.221 502.746 109.555C500.764 105.789 498.088 102.915 494.719 100.933C491.448 98.951 487.881 97.9601 484.016 97.9601C480.151 97.9601 476.534 98.951 473.165 100.933C469.894 102.915 467.219 105.739 465.138 109.406C463.156 113.073 462.165 117.334 462.165 122.19C462.165 127.046 463.156 131.307 465.138 134.974C467.219 138.64 469.894 141.465 473.165 143.447C476.534 145.429 480.151 146.42 484.016 146.42Z" fill="white"/>
<path d="M401.585 161.434C394.351 161.434 387.811 159.749 381.964 156.379C376.216 153.01 371.707 148.352 368.437 142.406C365.166 136.361 363.531 129.623 363.531 122.19C363.531 115.055 365.067 108.514 368.139 102.568C371.311 96.5234 375.72 91.7666 381.369 88.2981C387.018 84.7306 393.459 82.9468 400.694 82.9468C408.126 82.9468 414.567 84.5819 420.018 87.8522C425.567 91.1225 429.779 95.6811 432.653 101.528C435.527 107.276 436.964 113.915 436.964 121.447C436.964 122.339 436.914 123.231 436.815 124.123C436.716 125.014 436.667 125.51 436.667 125.609H379.883C380.378 132.348 382.806 137.551 387.166 141.217C391.527 144.884 396.482 146.717 402.031 146.717C410.554 146.717 417.094 142.753 421.653 134.825L435.626 141.515C432.356 147.56 427.797 152.415 421.95 156.082C416.203 159.65 409.414 161.434 401.585 161.434ZM420.315 113.123C420.117 110.744 419.324 108.316 417.937 105.839C416.549 103.361 414.369 101.28 411.396 99.5955C408.522 97.8117 404.905 96.9198 400.545 96.9198C395.689 96.9198 391.477 98.4063 387.91 101.379C384.441 104.352 382.063 108.267 380.775 113.123H420.315Z" fill="white"/>
<path d="M318.152 85.3252H333.612V96.3252H334.504C336.089 92.5595 338.963 89.4378 343.125 86.9603C347.288 84.3838 351.549 83.0955 355.909 83.0955C359.477 83.0955 362.4 83.591 364.68 84.582V101.677C361.31 99.9919 357.544 99.1496 353.382 99.1496C348.031 99.1496 343.522 101.231 339.855 105.393C336.288 109.456 334.504 114.46 334.504 120.406V159.055H318.152V85.3252Z" fill="white"/>
<path d="M294.814 72.8384C291.742 72.8384 289.116 71.7979 286.936 69.7168C284.855 67.5366 283.814 64.9105 283.814 61.8384C283.814 58.7663 284.855 56.1897 286.936 54.1087C289.116 51.9285 291.742 50.8384 294.814 50.8384C297.887 50.8384 300.463 51.9285 302.544 54.1087C304.724 56.1897 305.815 58.7663 305.815 61.8384C305.815 64.9105 304.724 67.5366 302.544 69.7168C300.463 71.7979 297.887 72.8384 294.814 72.8384ZM286.639 85.325H302.99V159.055H286.639V85.325Z" fill="white"/>
<path d="M212.16 52.6221H276.823V68.5275H228.809V99.1492H272.066V114.906H228.809V159.055H212.16V52.6221Z" fill="white"/>
<path d="M51.4502 191.109C59.6257 194.399 68.4954 196.352 77.8084 196.677C90.4123 197.117 102.398 194.511 113.113 189.561C100.264 184.513 88.6269 177.131 78.6955 167.952C72.2578 178.26 62.7361 186.401 51.4502 191.109Z" fill="#FF9100"/>
<path d="M78.6937 167.955C56.0233 146.988 42.2703 116.641 43.4327 83.3558C43.4704 82.2749 43.5275 81.1947 43.5942 80.1148C39.5339 79.0647 35.2951 78.4239 30.933 78.2716C24.6889 78.0535 18.6421 78.8279 12.9334 80.4355C6.88165 91.0365 3.22962 103.2 2.77465 116.228C1.6005 149.852 21.9481 179.231 51.4484 191.112C62.7344 186.404 72.2557 178.272 78.6937 167.955Z" fill="#FFC400"/>
<path d="M78.6947 167.954C83.9654 159.519 87.1612 149.63 87.5333 138.976C88.512 110.95 69.6713 86.8412 43.5951 80.1137C43.5284 81.1936 43.4714 82.2738 43.4336 83.3547C42.2713 116.64 56.0242 146.987 78.6947 167.954Z" fill="#FF9100"/>
<path d="M84.6172 1.33524C69.7659 13.233 58.0385 28.9212 50.9432 46.9936C46.8809 57.3453 44.3282 68.4647 43.583 80.1206C69.6591 86.8481 88.4998 110.957 87.5211 138.983C87.1491 149.637 83.944 159.516 78.6825 167.961C88.6136 177.149 100.251 184.522 113.1 189.57C138.89 177.649 157.188 151.996 158.247 121.654C158.934 101.995 151.381 84.4744 140.708 69.6852C129.437 54.0442 84.6172 1.33524 84.6172 1.33524Z" fill="#DD2C00"/>
</svg>
